<?xml version="1.0" encoding="utf-8" ?>
<svg baseProfile="tiny" height="100%" version="1.2" width="100%" xmlns="http://www.w3.org/2000/svg" xmlns:ev="http://www.w3.org/2001/xml-events" xmlns:xlink="http://www.w3.org/1999/xlink"><defs /><polyline fill="none" points="200,300 200,0 0,0 0,1000 200,1000 200,700" stroke="blue" stroke-width="2.5" /><line stroke="blue" stroke-linecap="square" stroke-width="2.5" x1="95.5" x2="95.5" y1="0.0" y2="1000" /><line stroke="blue" stroke-linecap="square" stroke-width="2.5" x1="104.5" x2="104.5" y1="0" y2="1000" /><rect fill="none" height="320.0" stroke="blue" stroke-width="2.5" width="120.0" x="104.5" y="337.0" /><rect fill="none" height="320.0" stroke="blue" stroke-width="2.0" width="7" x="104.5" y="337.0" /><polyline fill="none" points="124.5,337.0 124.5,300 624.5,300 624.5,700 124.5,700 124.5,657.0" stroke="blue" stroke-width="2.5" /><line stroke="red" stroke-dasharray="5 5" stroke-linecap="square" stroke-width="2.5" x1="124.5" x2="124.5" y1="337.0" y2="657.0" /><line stroke="red" stroke-dasharray="5 5" stroke-linecap="square" stroke-width="2.5" x1="200" x2="200" y1="300" y2="700" /><line stroke="blue" stroke-linecap="square" stroke-width="2.5" x1="124.5" x2="624.5" y1="316.0" y2="316.0" /><line stroke="blue" stroke-linecap="square" stroke-width="2.5" x1="124.5" x2="624.5" y1="684.0" y2="684.0" /><circle cx="144.5" cy="377.0" fill="black" r="8" stroke="blue" stroke-width="1.5" /><line stroke="blue" stroke-linecap="square" stroke-width="2.0" x1="132.5" x2="156.5" y1="377.0" y2="377.0" /><line stroke="blue" stroke-dasharray="20 5 1 5" stroke-linecap="square" stroke-width="1.5" x1="144.5" x2="144.5" y1="337.0" y2="657.0" /><circle cx="184.5" cy="377.0" fill="black" r="8" stroke="blue" stroke-width="1.5" /><line stroke="blue" stroke-linecap="square" stroke-width="2.0" x1="172.5" x2="196.5" y1="377.0" y2="377.0" /><line stroke="blue" stroke-dasharray="20 5 1 5" stroke-linecap="square" stroke-width="1.5" x1="184.5" x2="184.5" y1="337.0" y2="657.0" /><circle cx="144.5" cy="437.0" fill="black" r="8" stroke="blue" stroke-width="1.5" /><line stroke="blue" stroke-linecap="square" stroke-width="2.0" x1="132.5" x2="156.5" y1="437.0" y2="437.0" /><line stroke="blue" stroke-dasharray="20 5 1 5" stroke-linecap="square" stroke-width="1.5" x1="144.5" x2="144.5" y1="337.0" y2="657.0" /><circle cx="184.5" cy="437.0" fill="black" r="8" stroke="blue" stroke-width="1.5" /><line stroke="blue" stroke-linecap="square" stroke-width="2.0" x1="172.5" x2="196.5" y1="437.0" y2="437.0" /><line stroke="blue" stroke-dasharray="20 5 1 5" stroke-linecap="square" stroke-width="1.5" x1="184.5" x2="184.5" y1="337.0" y2="657.0" /><circle cx="144.5" cy="497.0" fill="black" r="8" stroke="blue" stroke-width="1.5" /><line stroke="blue" stroke-linecap="square" stroke-width="2.0" x1="132.5" x2="156.5" y1="497.0" y2="497.0" /><line stroke="blue" stroke-dasharray="20 5 1 5" stroke-linecap="square" stroke-width="1.5" x1="144.5" x2="144.5" y1="337.0" y2="657.0" /><circle cx="184.5" cy="497.0" fill="black" r="8" stroke="blue" stroke-width="1.5" /><line stroke="blue" stroke-linecap="square" stroke-width="2.0" x1="172.5" x2="196.5" y1="497.0" y2="497.0" /><line stroke="blue" stroke-dasharray="20 5 1 5" stroke-linecap="square" stroke-width="1.5" x1="184.5" x2="184.5" y1="337.0" y2="657.0" /><circle cx="144.5" cy="557.0" fill="black" r="8" stroke="blue" stroke-width="1.5" /><line stroke="blue" stroke-linecap="square" stroke-width="2.0" x1="132.5" x2="156.5" y1="557.0" y2="557.0" /><line stroke="blue" stroke-dasharray="20 5 1 5" stroke-linecap="square" stroke-width="1.5" x1="144.5" x2="144.5" y1="337.0" y2="657.0" /><circle cx="184.5" cy="557.0" fill="black" r="8" stroke="blue" stroke-width="1.5" /><line stroke="blue" stroke-linecap="square" stroke-width="2.0" x1="172.5" x2="196.5" y1="557.0" y2="557.0" /><line stroke="blue" stroke-dasharray="20 5 1 5" stroke-linecap="square" stroke-width="1.5" x1="184.5" x2="184.5" y1="337.0" y2="657.0" /><circle cx="144.5" cy="617.0" fill="black" r="8" stroke="blue" stroke-width="1.5" /><line stroke="blue" stroke-linecap="square" stroke-width="2.0" x1="132.5" x2="156.5" y1="617.0" y2="617.0" /><line stroke="blue" stroke-dasharray="20 5 1 5" stroke-linecap="square" stroke-width="1.5" x1="144.5" x2="144.5" y1="337.0" y2="657.0" /><circle cx="184.5" cy="617.0" fill="black" r="8" stroke="blue" stroke-width="1.5" /><line stroke="blue" stroke-linecap="square" stroke-width="2.0" x1="172.5" x2="196.5" y1="617.0" y2="617.0" /><line stroke="blue" stroke-dasharray="20 5 1 5" stroke-linecap="square" stroke-width="1.5" x1="184.5" x2="184.5" y1="337.0" y2="657.0" /></svg>