<?xml version="1.0" encoding="utf-8" ?>
<svg baseProfile="full" height="100%" version="1.1" width="100%" xmlns="http://www.w3.org/2000/svg" xmlns:ev="http://www.w3.org/2001/xml-events" xmlns:xlink="http://www.w3.org/1999/xlink"><defs><marker id="id4" markerHeight="10" markerWidth="10" orient="auto" refX="8" refY="0"><polyline fill="black" points="2.5,0 0,3 8,0 0,-3" /></marker><marker id="id3" markerHeight="10" markerWidth="10" orient="auto" refX="-8" refY="0"><polyline fill="black" points="-2.5,0 0,3 -8,0 0,-3" /></marker><marker id="id6" markerHeight="10" markerWidth="10" orient="auto" refX="8" refY="0"><polyline fill="black" points="2.5,0 0,3 8,0 0,-3" /></marker><marker id="id5" markerHeight="10" markerWidth="10" orient="auto" refX="-8" refY="0"><polyline fill="black" points="-2.5,0 0,3 -8,0 0,-3" /></marker><marker id="id8" markerHeight="10" markerWidth="10" orient="auto" refX="8" refY="0"><polyline fill="black" points="2.5,0 0,3 8,0 0,-3" /></marker><marker id="id7" markerHeight="10" markerWidth="10" orient="auto" refX="-8" refY="0"><polyline fill="black" points="-2.5,0 0,3 -8,0 0,-3" /></marker><marker id="id10" markerHeight="10" markerWidth="10" orient="auto" refX="8" refY="0"><polyline fill="black" points="2.5,0 0,3 8,0 0,-3" /></marker><marker id="id9" markerHeight="10" markerWidth="10" orient="auto" refX="-8" refY="0"><polyline fill="black" points="-2.5,0 0,3 -8,0 0,-3" /></marker><marker id="id11" markerHeight="10" markerWidth="10" orient="auto" refX="-8" refY="0"><polyline fill="black" points="-2.5,0 0,3 -8,0 0,-3" /></marker><marker id="id2" markerHeight="10" markerWidth="10" orient="auto" refX="2.5" refY="0"><polyline fill="black" points="2.5,0 0,3 10,0 0,-3" /></marker><marker id="id1" markerHeight="10" markerWidth="10" orient="auto" refX="-2.5" refY="0"><polyline fill="black" points="-2.5,0 0,3 -10,0 0,-3" /></marker><marker id="id12" markerHeight="10" markerWidth="10" orient="auto" refX="-8" refY="0"><polyline fill="black" points="-2.5,0 0,3 -8,0 0,-3" /></marker><marker id="id13" markerHeight="10" markerWidth="10" orient="auto" refX="-8" refY="0"><polyline fill="black" points="-2.5,0 0,3 -8,0 0,-3" /></marker><marker id="id14" markerHeight="10" markerWidth="10" orient="auto" refX="-8" refY="0"><polyline fill="black" points="-2.5,0 0,3 -8,0 0,-3" /></marker><marker id="id15" markerHeight="10" markerWidth="10" orient="auto" refX="-8" refY="0"><polyline fill="black" points="-2.5,0 0,3 -8,0 0,-3" /></marker></defs><polyline fill="none" points="250,300 250,0 0,0 0,1000 250,1000 250,700" stroke="blue" stroke-width="2.5" /><line stroke="blue" stroke-linecap="square" stroke-width="2.5" x1="120.0" x2="120.0" y1="0.0" y2="1000" /><line stroke="blue" stroke-linecap="square" stroke-width="2.5" x1="130.0" x2="130.0" y1="0" y2="1000" /><rect fill="none" height="190.0" stroke="blue" stroke-width="2.5" width="80.0" x="130.0" y="333.0" /><rect fill="none" height="190.0" stroke="blue" stroke-width="2.0" width="6" x="130.0" y="333.0" /><polyline fill="none" points="150.0,333.0 150.0,300 650.0,300 650.0,700 150.0,700 150.0,523.0" stroke="blue" stroke-width="2.5" /><line stroke="red" stroke-dasharray="5 5" stroke-linecap="square" stroke-width="2.5" x1="150.0" x2="150.0" y1="333.0" y2="523.0" /><line stroke="red" stroke-dasharray="5 5" stroke-linecap="square" stroke-width="2.5" x1="250" x2="250" y1="300" y2="700" /><line stroke="blue" stroke-linecap="square" stroke-width="2.5" x1="150.0" x2="650.0" y1="316.0" y2="316.0" /><line stroke="blue" stroke-linecap="square" stroke-width="2.5" x1="150.0" x2="650.0" y1="684.0" y2="684.0" /><circle cx="170.0" cy="373.0" fill="none" r="8" stroke="blue" stroke-width="1.5" /><line stroke="red" stroke-linecap="square" stroke-width="2.0" x1="158.0" x2="182.0" y1="373.0" y2="373.0" /><line stroke="blue" stroke-dasharray="20 5 1 5" stroke-linecap="square" stroke-width="1.5" x1="170.0" x2="170.0" y1="333.0" y2="523.0" /><circle cx="170.0" cy="428.0" fill="none" r="8" stroke="blue" stroke-width="1.5" /><line stroke="red" stroke-linecap="square" stroke-width="2.0" x1="158.0" x2="182.0" y1="428.0" y2="428.0" /><line stroke="blue" stroke-dasharray="20 5 1 5" stroke-linecap="square" stroke-width="1.5" x1="170.0" x2="170.0" y1="333.0" y2="523.0" /><circle cx="170.0" cy="483.0" fill="none" r="8" stroke="blue" stroke-width="1.5" /><line stroke="red" stroke-linecap="square" stroke-width="2.0" x1="158.0" x2="182.0" y1="483.0" y2="483.0" /><line stroke="blue" stroke-dasharray="20 5 1 5" stroke-linecap="square" stroke-width="1.5" x1="170.0" x2="170.0" y1="333.0" y2="523.0" /><line marker-end="url(#id4)" marker-start="url(#id3)" stroke="black" stroke-linecap="square" stroke-width="2.5" x1="-110.0" x2="-110.0" y1="373.0" y2="483.0" /><text fill="black" x="-215.0" y="428.0">2 @55.0mm c/c</text><line stroke="black" stroke-linecap="square" stroke-width="2.5" x1="-120.0" x2="-100.0" y1="373.0" y2="373.0" /><line stroke="black" stroke-linecap="square" stroke-width="2.5" x1="-120.0" x2="-100.0" y1="483.0" y2="483.0" /><line marker-end="url(#id6)" marker-start="url(#id5)" stroke="black" stroke-linecap="square" stroke-width="2.5" x1="-110.0" x2="-110.0" y1="373.0" y2="333.0" /><text fill="black" x="-185.0" y="353.0">40.0mm</text><line stroke="black" stroke-linecap="square" stroke-width="2.5" x1="-120.0" x2="-100.0" y1="373.0" y2="373.0" /><line stroke="black" stroke-linecap="square" stroke-width="2.5" x1="-120.0" x2="-100.0" y1="333.0" y2="333.0" /><line stroke="#D8D8D8" stroke-linecap="square" stroke-width="2.5" x1="130.0" x2="-45" y1="333.0" y2="333.0" /><line stroke="#D8D8D8" stroke-linecap="square" stroke-width="2.5" x1="170.0" x2="-45" y1="373.0" y2="373.0" /><line stroke="#D8D8D8" stroke-linecap="square" stroke-width="2.5" x1="170.0" x2="-45" y1="483.0" y2="483.0" /><line stroke="#D8D8D8" stroke-linecap="square" stroke-width="2.5" x1="130.0" x2="-45" y1="523.0" y2="523.0" /><line marker-end="url(#id8)" marker-start="url(#id7)" stroke="black" stroke-linecap="square" stroke-width="2.5" x1="-110.0" x2="-110.0" y1="483.0" y2="523.0" /><text fill="black" x="-185.0" y="503.0">40.0mm</text><line stroke="black" stroke-linecap="square" stroke-width="2.5" x1="-120.0" x2="-100.0" y1="483.0" y2="483.0" /><line stroke="black" stroke-linecap="square" stroke-width="2.5" x1="-120.0" x2="-100.0" y1="523.0" y2="523.0" /><line marker-end="url(#id10)" marker-start="url(#id9)" stroke="black" stroke-linecap="square" stroke-width="2.5" x1="210.0" x2="290.0" y1="372.0" y2="372.0" /><text fill="black" x="250.0" y="322.0">40mm</text><line stroke="black" stroke-linecap="square" stroke-width="2.5" x1="210.0" x2="210.0" y1="362.0" y2="382.0" /><line stroke="black" stroke-linecap="square" stroke-width="2.5" x1="290.0" x2="290.0" y1="362.0" y2="382.0" /><polyline fill="none" marker-start="url(#id11)" points="170.0,523.0 370.0,723.0 510.0,723.0" stroke="black" stroke-width="2.5" /><text fill="black" font-family="sans-serif" font-size="12" x="384.0" y="708.0">PLT. 190X80X16</text><text fill="black" font-family="sans-serif" font-size="16" x="384.0" y="738.0" /><polyline fill="none" marker-start="url(#id12)" points="125,0 -48.2050807569,-100.0 -198.205080757,-100.0" stroke="black" stroke-width="2.5" /><text fill="black" font-family="sans-serif" font-size="12" x="-183.205080757" y="-115.0">Column ISSC 250</text><text fill="black" font-family="sans-serif" font-size="16" x="-213.205080757" y="-85.0" /><polyline fill="none" marker-start="url(#id13)" points="170.0,373.0 320.0,223.0 570.0,223.0" stroke="black" stroke-width="2.5" /><text fill="black" font-family="sans-serif" font-size="12" x="345.0" y="208.0">3 nos 16Ø holes</text><text fill="black" font-family="sans-serif" font-size="16" x="345.0" y="238.0">for M20 bolts (grade 8.8)</text><polyline fill="none" marker-start="url(#id14)" points="520,700 670.0,850.0 800.0,850.0" stroke="black" stroke-width="2.5" /><text fill="black" font-family="sans-serif" font-size="12" x="683.0" y="835.0">Beam ISMB 400</text><text fill="black" font-family="sans-serif" font-size="16" x="683.0" y="865.0" /><polyline fill="none" marker-start="url(#id15)" points="130.0,333.0 -120.0,83.0 -280.0,83.0" stroke="black" stroke-width="2.5" /><text fill="black" font-family="sans-serif" font-size="12" x="-264.0" y="68.0">          z 6 mm</text><text fill="black" font-family="sans-serif" font-size="16" x="-296.0" y="98.0" /></svg>