<?xml version="1.0" encoding="utf-8" ?>
<svg baseProfile="full" height="100%" version="1.1" width="100%" xmlns="http://www.w3.org/2000/svg" xmlns:ev="http://www.w3.org/2001/xml-events" xmlns:xlink="http://www.w3.org/1999/xlink"><defs><pattern height="4" id="diagonalHatch" patternTransform="rotate(45 2 2)" patternUnits="userSpaceOnUse" width="4"><path d="M -1,2 l 6,0" stroke="#000000" stroke-width="0.7" /></pattern><marker id="id41" markerHeight="10" markerWidth="10" orient="auto" refX="8" refY="0"><polyline fill="black" points="2.5,0 0,3 8,0 0,-3" /></marker><marker id="id40" markerHeight="10" markerWidth="10" orient="auto" refX="-8" refY="0"><polyline fill="black" points="-2.5,0 0,3 -8,0 0,-3" /></marker><marker id="id43" markerHeight="10" markerWidth="10" orient="auto" refX="8" refY="0"><polyline fill="black" points="2.5,0 0,3 8,0 0,-3" /></marker><marker id="id42" markerHeight="10" markerWidth="10" orient="auto" refX="-8" refY="0"><polyline fill="black" points="-2.5,0 0,3 -8,0 0,-3" /></marker><marker id="id45" markerHeight="10" markerWidth="10" orient="auto" refX="8" refY="0"><polyline fill="black" points="2.5,0 0,3 8,0 0,-3" /></marker><marker id="id44" markerHeight="10" markerWidth="10" orient="auto" refX="-8" refY="0"><polyline fill="black" points="-2.5,0 0,3 -8,0 0,-3" /></marker><marker id="id47" markerHeight="10" markerWidth="10" orient="auto" refX="8" refY="0"><polyline fill="black" points="2.5,0 0,3 8,0 0,-3" /></marker><marker id="id46" markerHeight="10" markerWidth="10" orient="auto" refX="-8" refY="0"><polyline fill="black" points="-2.5,0 0,3 -8,0 0,-3" /></marker><marker id="id49" markerHeight="10" markerWidth="10" orient="auto" refX="8" refY="0"><polyline fill="black" points="2.5,0 0,3 8,0 0,-3" /></marker><marker id="id48" markerHeight="10" markerWidth="10" orient="auto" refX="-8" refY="0"><polyline fill="black" points="-2.5,0 0,3 -8,0 0,-3" /></marker><marker id="id51" markerHeight="10" markerWidth="10" orient="auto" refX="8" refY="0"><polyline fill="black" points="2.5,0 0,3 8,0 0,-3" /></marker><marker id="id50" markerHeight="10" markerWidth="10" orient="auto" refX="-8" refY="0"><polyline fill="black" points="-2.5,0 0,3 -8,0 0,-3" /></marker><marker id="id52" markerHeight="10" markerWidth="10" orient="auto" refX="-8" refY="0"><polyline fill="black" points="-2.5,0 0,3 -8,0 0,-3" /></marker><marker id="id39" markerHeight="10" markerWidth="10" orient="auto" refX="2.5" refY="0"><polyline fill="black" points="2.5,0 0,3 10,0 0,-3" /></marker><marker id="id38" markerHeight="10" markerWidth="10" orient="auto" refX="-2.5" refY="0"><polyline fill="black" points="-2.5,0 0,3 -10,0 0,-3" /></marker><marker id="id53" markerHeight="10" markerWidth="10" orient="auto" refX="-8" refY="0"><polyline fill="black" points="-2.5,0 0,3 -8,0 0,-3" /></marker><marker id="id54" markerHeight="10" markerWidth="10" orient="auto" refX="-8" refY="0"><polyline fill="black" points="-2.5,0 0,3 -8,0 0,-3" /></marker><marker id="id55" markerHeight="10" markerWidth="10" orient="auto" refX="-8" refY="0"><polyline fill="black" points="-2.5,0 0,3 -8,0 0,-3" /></marker><marker id="id56" markerHeight="10" markerWidth="10" orient="auto" refX="-8" refY="0"><polyline fill="black" points="-2.5,0 0,3 -8,0 0,-3" /></marker></defs><polyline fill="none" points="200,200 200,0 0,0 0,800 200,800 200,600" stroke="blue" stroke-width="2.5" /><line stroke="blue" stroke-linecap="square" stroke-width="2.5" x1="95.5" x2="95.5" y1="0.0" y2="800" /><line stroke="blue" stroke-linecap="square" stroke-width="2.5" x1="104.5" x2="104.5" y1="0" y2="800.0" /><rect fill="url(#diagonalHatch)" height="300.0" stroke="white" stroke-width="2.0" width="6" x="104.5" y="233.0" /><rect fill="none" height="300.0" stroke="blue" stroke-width="2.5" width="100.0" x="104.5" y="233.0" /><polyline fill="none" points="124.5,233.0 124.5,200.0 474.5,200 474.5,600 124.5,600.0 124.5,533.0" stroke="blue" stroke-width="2.5" /><line stroke="red" stroke-dasharray="5 5" stroke-linecap="square" stroke-width="2.5" x1="124.5" x2="124.5" y1="233.0" y2="533.0" /><line stroke="red" stroke-dasharray="5 5" stroke-linecap="square" stroke-width="2.5" x1="200" x2="200" y1="200" y2="600" /><line stroke="blue" stroke-linecap="square" stroke-width="2.5" x1="124.5" x2="474.5" y1="216.0" y2="216.0" /><line stroke="blue" stroke-linecap="square" stroke-width="2.5" x1="124.5" x2="474.5" y1="584.0" y2="584.0" /><circle cx="154.5" cy="283.0" fill="none" r="10" stroke="blue" stroke-width="1.5" /><line stroke="red" stroke-linecap="square" stroke-width="2.0" x1="140.5" x2="168.5" y1="283.0" y2="283.0" /><line stroke="blue" stroke-dasharray="20 5 1 5" stroke-linecap="square" stroke-width="1.5" x1="154.5" x2="154.5" y1="233.0" y2="533.0" /><circle cx="154.5" cy="383.0" fill="none" r="10" stroke="blue" stroke-width="1.5" /><line stroke="red" stroke-linecap="square" stroke-width="2.0" x1="140.5" x2="168.5" y1="383.0" y2="383.0" /><line stroke="blue" stroke-dasharray="20 5 1 5" stroke-linecap="square" stroke-width="1.5" x1="154.5" x2="154.5" y1="233.0" y2="533.0" /><circle cx="154.5" cy="483.0" fill="none" r="10" stroke="blue" stroke-width="1.5" /><line stroke="red" stroke-linecap="square" stroke-width="2.0" x1="140.5" x2="168.5" y1="483.0" y2="483.0" /><line stroke="blue" stroke-dasharray="20 5 1 5" stroke-linecap="square" stroke-width="1.5" x1="154.5" x2="154.5" y1="233.0" y2="533.0" /><line marker-end="url(#id41)" marker-start="url(#id40)" stroke="black" stroke-linecap="square" stroke-width="2.5" x1="-80.0" x2="-80.0" y1="283.0" y2="483.0" /><text fill="black" font-family="sans-serif" font-size="28" x="-314.5" y="383.0">2 @100 mm c/c</text><line stroke="black" stroke-linecap="square" stroke-opacity="1.0" stroke-width="2.5" x1="-90.0" x2="-70.0" y1="283.0" y2="283.0" /><line stroke="black" stroke-linecap="square" stroke-opacity="1.0" stroke-width="2.5" x1="-90.0" x2="-70.0" y1="483.0" y2="483.0" /><line marker-end="url(#id43)" marker-start="url(#id42)" stroke="black" stroke-linecap="square" stroke-width="2.5" x1="-80.0" x2="-80.0" y1="283.0" y2="233.0" /><text fill="black" font-family="sans-serif" font-size="28" x="-200.0" y="258.0">50 mm</text><line stroke="black" stroke-linecap="square" stroke-opacity="1.0" stroke-width="2.5" x1="-90.0" x2="-70.0" y1="283.0" y2="283.0" /><line stroke="black" stroke-linecap="square" stroke-opacity="1.0" stroke-width="2.5" x1="-90.0" x2="-70.0" y1="233.0" y2="233.0" /><line marker-end="url(#id45)" marker-start="url(#id44)" stroke="black" stroke-linecap="square" stroke-width="2.5" x1="-80.0" x2="-80.0" y1="200.0" y2="233.0" /><text fill="black" font-family="sans-serif" font-size="28" x="-205.0" y="216.5">33 mm</text><line stroke="black" stroke-linecap="square" stroke-opacity="1.0" stroke-width="2.5" x1="-90.0" x2="-70.0" y1="200.0" y2="200.0" /><line stroke="black" stroke-linecap="square" stroke-opacity="1.0" stroke-width="2.5" x1="-90.0" x2="-70.0" y1="233.0" y2="233.0" /><line stroke="#D8D8D8" stroke-linecap="square" stroke-opacity="0.7" stroke-width="2.5" x1="104.5" x2="-60" y1="233.0" y2="233.0" /><line stroke="#D8D8D8" stroke-linecap="square" stroke-opacity="0.7" stroke-width="2.5" x1="154.5" x2="-60" y1="283.0" y2="283.0" /><line stroke="#D8D8D8" stroke-linecap="square" stroke-opacity="0.7" stroke-width="2.5" x1="154.5" x2="-60" y1="483.0" y2="483.0" /><line stroke="#D8D8D8" stroke-linecap="square" stroke-opacity="0.7" stroke-width="2.5" x1="104.5" x2="-60" y1="533.0" y2="533.0" /><line marker-end="url(#id47)" marker-start="url(#id46)" stroke="black" stroke-linecap="square" stroke-width="2.5" x1="-80.0" x2="-80.0" y1="483.0" y2="533.0" /><text fill="black" font-family="sans-serif" font-size="28" x="-200.0" y="508.0">50 mm</text><line stroke="black" stroke-linecap="square" stroke-opacity="1.0" stroke-width="2.5" x1="-90.0" x2="-70.0" y1="483.0" y2="483.0" /><line stroke="black" stroke-linecap="square" stroke-opacity="1.0" stroke-width="2.5" x1="-90.0" x2="-70.0" y1="533.0" y2="533.0" /><line stroke="#D8D8D8" stroke-linecap="square" stroke-opacity="0.7" stroke-width="2.5" x1="124.5" x2="124.5" y1="600.0" y2="900.0" /><line stroke="#D8D8D8" stroke-linecap="square" stroke-opacity="0.7" stroke-width="2.5" x1="104.5" x2="104.5" y1="800.0" y2="900.0" /><line stroke="black" stroke-linecap="square" stroke-width="2.5" x1="124.5" x2="124.5" y1="840.0" y2="840.0" /><line stroke="black" stroke-linecap="square" stroke-width="2.5" x1="104.5" x2="104.5" y1="840.0" y2="840.0" /><line marker-end="url(#id49)" stroke="black" stroke-linecap="square" stroke-width="2.5" x1="174.5" x2="124.5" y1="850.0" y2="850.0" /><line marker-end="url(#id49)" stroke="black" stroke-linecap="square" stroke-width="2.5" x1="54.5" x2="104.5" y1="850.0" y2="850.0" /><text fill="black" font-family="sans-serif" font-size="28" x="-65.5" y="850.0">20 mm</text><line marker-end="url(#id51)" marker-start="url(#id50)" stroke="black" stroke-linecap="square" stroke-width="2.5" x1="154.5" x2="204.5" y1="-170.0" y2="-170.0" /><text fill="black" font-family="sans-serif" font-size="28" x="179.5" y="-135.0">50 mm</text><line stroke="black" stroke-linecap="square" stroke-opacity="1.0" stroke-width="2.5" x1="154.5" x2="154.5" y1="-160.0" y2="-180.0" /><line stroke="black" stroke-linecap="square" stroke-opacity="1.0" stroke-width="2.5" x1="204.5" x2="204.5" y1="-160.0" y2="-180.0" /><line stroke="#D8D8D8" stroke-linecap="square" stroke-opacity="0.7" stroke-width="2.5" x1="154.5" x2="154.5" y1="233.0" y2="-150.0" /><line stroke="#D8D8D8" stroke-linecap="square" stroke-opacity="0.7" stroke-width="2.5" x1="204.5" x2="204.5" y1="233.0" y2="-150.0" /><polyline fill="none" marker-start="url(#id52)" points="154.5,533.0 354.5,733.0 624.5,733.0" stroke="black" stroke-width="2.5" /><text fill="black" font-family="sans-serif" font-size="28" x="381.5" y="715.0">PLT. 300X100X10</text><text fill="black" font-family="sans-serif" font-size="28" x="381.5" y="751.0" /><polyline fill="none" marker-start="url(#id53)" points="100,0 -38.5640646055,-80.0 -308.564064606,-80.0" stroke="black" stroke-width="2.5" /><text fill="black" font-family="sans-serif" font-size="28" x="-281.564064606" y="-98.0">Column ISSC 200</text><text fill="black" font-family="sans-serif" font-size="28" x="-335.564064606" y="-62.0" /><polyline fill="none" marker-start="url(#id54)" points="154.5,283.0 304.5,133.0 754.5,133.0" stroke="black" stroke-width="2.5" /><text fill="black" font-family="sans-serif" font-size="28" x="349.5" y="115.0">3 nos 20Ø holes</text><text fill="black" font-family="sans-serif" font-size="28" x="349.5" y="151.0">for M20 bolts (grade 8.8)</text><polyline fill="none" marker-start="url(#id55)" points="474.5,400.0 474.5,400.0 708.5,400.0" stroke="black" stroke-width="2.5" /><text fill="black" font-family="sans-serif" font-size="28" x="497.9" y="382.0">Beam ISMB 400</text><text fill="black" font-family="sans-serif" font-size="28" x="497.9" y="418.0" /><polyline fill="none" marker-start="url(#id56)" points="104.5,233.0 -95.5,33.0 -383.5,33.0" stroke="black" stroke-width="2.5" /><text fill="black" font-family="sans-serif" font-size="28" x="-354.7" y="15.0">          z 6 mm</text><text fill="black" font-family="sans-serif" font-size="28" x="-412.3" y="51.0" /></svg>