<?xml version="1.0" encoding="utf-8" ?>
<svg baseProfile="full" height="100%" version="1.1" width="100%" xmlns="http://www.w3.org/2000/svg" xmlns:ev="http://www.w3.org/2001/xml-events" xmlns:xlink="http://www.w3.org/1999/xlink"><defs><pattern height="6" id="diagonalHatch" patternTransform="rotate(45 2 2)" patternUnits="userSpaceOnUse" width="6"><path d="M -1,2 l 6,0" stroke="#000000" stroke-width="0.7" /></pattern><marker id="id58" markerHeight="10" markerWidth="10" orient="auto" refX="8" refY="0"><polyline fill="black" points="2.5,0 0,3 8,0 0,-3" /></marker><marker id="id57" markerHeight="10" markerWidth="10" orient="auto" refX="-8" refY="0"><polyline fill="black" points="-2.5,0 0,3 -8,0 0,-3" /></marker><marker id="id60" markerHeight="10" markerWidth="10" orient="auto" refX="8" refY="0"><polyline fill="black" points="2.5,0 0,3 8,0 0,-3" /></marker><marker id="id59" markerHeight="10" markerWidth="10" orient="auto" refX="-8" refY="0"><polyline fill="black" points="-2.5,0 0,3 -8,0 0,-3" /></marker><marker id="id62" markerHeight="10" markerWidth="10" orient="auto" refX="8" refY="0"><polyline fill="black" points="2.5,0 0,3 8,0 0,-3" /></marker><marker id="id61" markerHeight="10" markerWidth="10" orient="auto" refX="-8" refY="0"><polyline fill="black" points="-2.5,0 0,3 -8,0 0,-3" /></marker><marker id="id63" markerHeight="10" markerWidth="10" orient="auto" refX="-8" refY="0"><polyline fill="black" points="-2.5,0 0,3 -8,0 0,-3" /></marker><marker id="id64" markerHeight="10" markerWidth="10" orient="auto" refX="-8" refY="0"><polyline fill="black" points="-2.5,0 0,3 -8,0 0,-3" /></marker><marker id="id65" markerHeight="10" markerWidth="10" orient="auto" refX="-8" refY="0"><polyline fill="black" points="-2.5,0 0,3 -8,0 0,-3" /></marker><marker id="id66" markerHeight="10" markerWidth="10" orient="auto" refX="-8" refY="0"><polyline fill="black" points="-2.5,0 0,3 -8,0 0,-3" /></marker></defs><rect fill="none" height="800" stroke="blue" stroke-width="2.5" width="200" x="0" y="0" /><line stroke="blue" stroke-linecap="square" stroke-width="2.5" x1="185.0" x2="185.0" y1="0.0" y2="800.0" /><line stroke="blue" stroke-linecap="square" stroke-width="2.5" x1="15.0" x2="15.0" y1="0.0" y2="800.0" /><polyline fill="none" points="33.0,200.0 173.0,200.0 173.0,216.0 107.45,216.0 107.45,584.0 173.0,584.0 173.0,600.0 33.0,600.0 33.0,584.0 98.55,584.0 98.55,216.0 33.0,216.0 33.0,200.0" stroke="blue" stroke-width="2.5" /><rect fill="url(#diagonalHatch)" height="300.0" stroke="white" stroke-width="2.5" width="6" x="82.55" y="233.0" /><rect fill="none" height="300.0" stroke="blue" stroke-width="2.5" width="10" x="88.55" y="233.0" /><circle cx="98.55" cy="283.0" fill="none" r="1.5" stroke="red" stroke-width="1.5" /><line stroke="red" stroke-dasharray="10 5 1 5" stroke-linecap="square" stroke-width="1.5" x1="118.55" x2="68.55" y1="283.0" y2="283.0" /><line stroke="black" stroke-linecap="square" stroke-width="1.5" x1="88.55" x2="107.45" y1="273.0" y2="273.0" /><line stroke="black" stroke-linecap="square" stroke-width="1.5" x1="88.55" x2="107.45" y1="293.0" y2="293.0" /><circle cx="98.55" cy="383.0" fill="none" r="1.5" stroke="red" stroke-width="1.5" /><line stroke="red" stroke-dasharray="10 5 1 5" stroke-linecap="square" stroke-width="1.5" x1="118.55" x2="68.55" y1="383.0" y2="383.0" /><line stroke="black" stroke-linecap="square" stroke-width="1.5" x1="88.55" x2="107.45" y1="373.0" y2="373.0" /><line stroke="black" stroke-linecap="square" stroke-width="1.5" x1="88.55" x2="107.45" y1="393.0" y2="393.0" /><circle cx="98.55" cy="483.0" fill="none" r="1.5" stroke="red" stroke-width="1.5" /><line stroke="red" stroke-dasharray="10 5 1 5" stroke-linecap="square" stroke-width="1.5" x1="118.55" x2="68.55" y1="483.0" y2="483.0" /><line stroke="black" stroke-linecap="square" stroke-width="1.5" x1="88.55" x2="107.45" y1="473.0" y2="473.0" /><line stroke="black" stroke-linecap="square" stroke-width="1.5" x1="88.55" x2="107.45" y1="493.0" y2="493.0" /><line marker-end="url(#id58)" marker-start="url(#id57)" stroke="black" stroke-linecap="square" stroke-width="2.5" x1="228.55" x2="228.55" y1="283.0" y2="483.0" /><text fill="black" font-family="sans-serif" font-size="28" x="243.55" y="383.0">2 @100 mm c/c</text><line stroke="black" stroke-linecap="square" stroke-opacity="1.0" stroke-width="2.5" x1="238.55" x2="218.55" y1="283.0" y2="283.0" /><line stroke="black" stroke-linecap="square" stroke-opacity="1.0" stroke-width="2.5" x1="238.55" x2="218.55" y1="483.0" y2="483.0" /><line marker-end="url(#id60)" marker-start="url(#id59)" stroke="black" stroke-linecap="square" stroke-width="2.5" x1="228.55" x2="228.55" y1="233.0" y2="283.0" /><text fill="black" font-family="sans-serif" font-size="28" x="243.55" y="258.0">50 mm </text><line stroke="black" stroke-linecap="square" stroke-opacity="1.0" stroke-width="2.5" x1="238.55" x2="218.55" y1="233.0" y2="233.0" /><line stroke="black" stroke-linecap="square" stroke-opacity="1.0" stroke-width="2.5" x1="238.55" x2="218.55" y1="283.0" y2="283.0" /><line marker-end="url(#id62)" marker-start="url(#id61)" stroke="black" stroke-linecap="square" stroke-width="2.5" x1="228.55" x2="228.55" y1="483.0" y2="533.0" /><text fill="black" font-family="sans-serif" font-size="28" x="243.55" y="508.0">50 mm</text><line stroke="black" stroke-linecap="square" stroke-opacity="1.0" stroke-width="2.5" x1="238.55" x2="218.55" y1="483.0" y2="483.0" /><line stroke="black" stroke-linecap="square" stroke-opacity="1.0" stroke-width="2.5" x1="238.55" x2="218.55" y1="533.0" y2="533.0" /><line stroke="#D8D8D8" stroke-linecap="square" stroke-opacity="0.7" stroke-width="2.5" x1="98.55" x2="213.55" y1="233.0" y2="233.0" /><line stroke="#D8D8D8" stroke-linecap="square" stroke-opacity="0.7" stroke-width="2.5" x1="98.55" x2="213.55" y1="283.0" y2="283.0" /><line stroke="#D8D8D8" stroke-linecap="square" stroke-opacity="0.7" stroke-width="2.5" x1="98.55" x2="213.55" y1="533.0" y2="533.0" /><line stroke="#D8D8D8" stroke-linecap="square" stroke-opacity="0.7" stroke-width="2.5" x1="98.55" x2="213.55" y1="483.0" y2="483.0" /><polyline fill="none" marker-start="url(#id63)" points="173.0,200.0 216.0,157.0 450.0,157.0" stroke="black" stroke-width="2.5" /><text fill="black" font-family="sans-serif" font-size="28" x="239.4" y="139.0">Beam ISMB 400</text><text fill="black" font-family="sans-serif" font-size="28" x="239.4" y="175.0" /><polyline fill="none" marker-start="url(#id64)" points="185.0,800.0 255.0,870.0 525.0,870.0" stroke="black" stroke-width="2.5" /><text fill="black" font-family="sans-serif" font-size="28" x="282.0" y="852.0">Column ISSC 200</text><text fill="black" font-family="sans-serif" font-size="28" x="282.0" y="888.0"> </text><polyline fill="none" marker-start="url(#id65)" points="93.55,533.0 253.55,693.0 523.55,693.0" stroke="black" stroke-width="2.5" /><text fill="black" font-family="sans-serif" font-size="28" x="280.55" y="675.0">PLT. 300x100x10</text><text fill="black" font-family="sans-serif" font-size="28" x="280.55" y="711.0" /><polyline fill="none" marker-start="url(#id66)" points="85.55,233.0 251.55,67.0 539.55,67.0" stroke="black" stroke-width="2.5" /><text fill="black" font-family="sans-serif" font-size="28" x="280.35" y="49.0">          z 6 mm</text><text fill="black" font-family="sans-serif" font-size="28" x="280.35" y="85.0">◁</text></svg>