<?xml version="1.0" encoding="utf-8" ?>
<svg baseProfile="full" height="100%" version="1.1" width="100%" xmlns="http://www.w3.org/2000/svg" xmlns:ev="http://www.w3.org/2001/xml-events" xmlns:xlink="http://www.w3.org/1999/xlink"><defs><marker id="id68" markerHeight="10" markerWidth="10" orient="auto" refX="8" refY="0"><polyline fill="black" points="2.5,0 0,3 8,0 0,-3" /></marker><marker id="id67" markerHeight="10" markerWidth="10" orient="auto" refX="-8" refY="0"><polyline fill="black" points="-2.5,0 0,3 -8,0 0,-3" /></marker><marker id="id69" markerHeight="10" markerWidth="10" orient="auto" refX="-8" refY="0"><polyline fill="black" points="-2.5,0 0,3 -8,0 0,-3" /></marker><marker id="id70" markerHeight="10" markerWidth="10" orient="auto" refX="-8" refY="0"><polyline fill="black" points="-2.5,0 0,3 -8,0 0,-3" /></marker><marker id="id71" markerHeight="10" markerWidth="10" orient="auto" refX="-8" refY="0"><polyline fill="black" points="-2.5,0 0,3 -8,0 0,-3" /></marker><marker id="id72" markerHeight="10" markerWidth="10" orient="auto" refX="-8" refY="0"><polyline fill="black" points="-2.5,0 0,3 -8,0 0,-3" /></marker><marker id="id74" markerHeight="10" markerWidth="10" orient="auto" refX="8" refY="0"><polyline fill="black" points="2.5,0 0,3 8,0 0,-3" /></marker><marker id="id73" markerHeight="10" markerWidth="10" orient="auto" refX="-8" refY="0"><polyline fill="black" points="-2.5,0 0,3 -8,0 0,-3" /></marker></defs><polyline fill="none" points="0,0 200,0 200.0,15.0 104.5,15.0 104.5,185.0 200.0,185.0 200,200 0,200 0.0,185.0 95.5,185.0 95.5,15.0 0.0,15.0 0,0" stroke="blue" stroke-width="2.5" /><rect fill="none" height="140" stroke="blue" stroke-width="2.5" width="350" x="124.5" y="29.0" /><line stroke="red" stroke-dasharray="5 5" stroke-linecap="square" stroke-width="2.5" x1="124.5" x2="474.5" y1="94.55" y2="94.55" /><line stroke="red" stroke-dasharray="5 5" stroke-linecap="square" stroke-width="2.5" x1="124.5" x2="474.5" y1="103.45" y2="103.45" /><line stroke="blue" stroke-linecap="square" stroke-width="2.5" x1="104.5" x2="124.5" y1="103.45" y2="103.45" /><line stroke="blue" stroke-linecap="square" stroke-width="2.5" x1="104.5" x2="124.5" y1="113.45" y2="113.45" /><polyline fill="none" points="124.5,103.45 204.5,103.45 204.5,113.45 124.5,113.45" stroke="red" stroke-dasharray="5 5" stroke-width="2.5" /><polyline fill="black" points="107.0,100.95 113.0,100.95 107.0,94.95 107.0,100.95" stroke="black" stroke-width="2.5" /><polyline fill="black" points="107.0,115.95 107.0,121.95 113.0,115.95 107.0,115.95" stroke="black" stroke-width="2.5" /><rect fill="black" height="18.9" stroke="black" stroke-width="2.5" width="20" x="144.5" y="94.55" /><line stroke="black" stroke-linecap="square" stroke-width="2.5" x1="154.5" x2="154.5" y1="84.55" y2="123.45" /><line stroke="#D8D8D8" stroke-linecap="square" stroke-opacity="0.7" stroke-width="2.5" x1="204.5" x2="204.5" y1="94.55" y2="-158.45" /><line stroke="#D8D8D8" stroke-linecap="square" stroke-opacity="0.7" stroke-width="2.5" x1="154.5" x2="154.5" y1="94.55" y2="-158.45" /><line marker-end="url(#id68)" marker-start="url(#id67)" stroke="black" stroke-linecap="square" stroke-width="2.5" x1="154.5" x2="204.5" y1="-158.45" y2="-158.45" /><text fill="black" font-family="sans-serif" font-size="28" x="179.5" y="-178.45">50 mm</text><line stroke="black" stroke-linecap="square" stroke-opacity="1.0" stroke-width="2.5" x1="154.5" x2="154.5" y1="-168.45" y2="-148.45" /><line stroke="black" stroke-linecap="square" stroke-opacity="1.0" stroke-width="2.5" x1="204.5" x2="204.5" y1="-168.45" y2="-148.45" /><line stroke="#D8D8D8" stroke-linecap="square" stroke-opacity="0.7" stroke-width="2.5" x1="154.5" x2="154.5" y1="94.55" y2="-58.45" /><polyline fill="none" marker-start="url(#id69)" points="474.5,103.45 474.5,103.45 708.5,103.45" stroke="black" stroke-width="2.5" /><text fill="black" font-family="sans-serif" font-size="28" x="497.9" y="85.45">Beam ISMB 400</text><text fill="black" font-family="sans-serif" font-size="28" x="497.9" y="121.45" /><polyline fill="none" marker-start="url(#id70)" points="0,200 170.0,370.0 440.0,370.0" stroke="black" stroke-width="2.5" /><text fill="black" font-family="sans-serif" font-size="28" x="197.0" y="352.0">Column ISSC 200</text><text fill="black" font-family="sans-serif" font-size="28" x="197.0" y="388.0"> </text><polyline fill="none" marker-start="url(#id71)" points="204.5,113.45 324.5,233.45 594.5,233.45" stroke="black" stroke-width="2.5" /><text fill="black" font-family="sans-serif" font-size="28" x="351.5" y="215.45">PLT. 300x100x10</text><text fill="black" font-family="sans-serif" font-size="28" x="351.5" y="251.45" /><polyline fill="none" marker-start="url(#id72)" points="104.5,103.45 -93.3310963706,-62.55 -381.331096371,-62.55" stroke="black" stroke-width="2.5" /><text fill="black" font-family="sans-serif" font-size="28" x="-352.531096371" y="-80.55">          z 6 mm</text><text fill="black" font-family="sans-serif" font-size="28" x="-410.131096371" y="-44.55">◁</text><line stroke="black" stroke-linecap="square" stroke-width="2.5" x1="104.5" x2="104.5" y1="245.0" y2="245.0" /><line stroke="black" stroke-linecap="square" stroke-width="2.5" x1="124.5" x2="124.5" y1="245.0" y2="245.0" /><line marker-end="url(#id74)" stroke="black" stroke-linecap="square" stroke-width="2.5" x1="54.5" x2="104.5" y1="235.0" y2="235.0" /><line marker-end="url(#id74)" stroke="black" stroke-linecap="square" stroke-width="2.5" x1="174.5" x2="124.5" y1="235.0" y2="235.0" /><text fill="black" font-family="sans-serif" font-size="28" x="184.5" y="235.0">20 mm</text><line stroke="#D8D8D8" stroke-linecap="square" stroke-opacity="0.7" stroke-width="2.5" x1="104.5" x2="104.5" y1="185.0" y2="270.0" /><line stroke="#D8D8D8" stroke-linecap="square" stroke-opacity="0.7" stroke-width="2.5" x1="124.5" x2="124.5" y1="169.0" y2="269.0" /></svg>